<svg width="132" height="64" viewBox="0 0 132 64" fill="none" xmlns="http://www.w3.org/2000/svg" xmlns:xlink="http://www.w3.org/1999/xlink">
<line x1="59.733" y1="5.012" x2="25.976" y2="28.728" stroke="#000000" stroke-width="3" stroke-miterlimit="3.999327"/>
<line x1="125.236" y1="7.741" x2="83.272" y2="5.8" stroke="#000000" stroke-width="3" stroke-miterlimit="3.999327"/>
<line x1="67.312" y1="3.233" x2="61.572" y2="43.409" stroke="#000000" stroke-width="3" stroke-miterlimit="3.999327"/>
<line x1="83.714" y1="2.49" x2="111.265" y2="33.035" stroke="#000000" stroke-width="3" stroke-miterlimit="3.999327"/>
<line x1="82.584" y1="6.378" x2="84.469" y2="32.891" stroke="#000000" stroke-width="3" stroke-miterlimit="3.999327"/>
<line x1="97.846" y1="19.503" x2="99.732" y2="46.016" stroke="#000000" stroke-width="3" stroke-miterlimit="3.999327"/>
<line x1="84.972" y1="28.471" x2="72.718" y2="52.279" stroke="#000000" stroke-width="3" stroke-miterlimit="3.999327"/>
<line x1="74.541" y1="46.266" x2="84.078" y2="62.375" stroke="#000000" stroke-width="3" stroke-miterlimit="3.999327"/>
<line x1="34.009" y1="3.561" x2="62.621" y2="5.501" stroke="#000000" stroke-width="3" stroke-miterlimit="3.999327"/>
<line x1="122.031" y1="8.463" x2="133.476" y2="23.649" stroke="#000000" stroke-width="3" stroke-miterlimit="3.999327"/>
<line x1="62.453" y1="40.61" x2="49.101" y2="52.085" stroke="#000000" stroke-width="3" stroke-miterlimit="3.999327"/>
<line x1="31.293" y1="26.423" x2="-0.34" y2="28.363" stroke="#000000" stroke-width="3" stroke-miterlimit="3.999327"/>
<line x1="38.348" y1="3.776" x2="15.459" y2="9.586" stroke="#000000" stroke-width="3" stroke-miterlimit="3.999327"/>
<line x1="49.485" y1="13.228" x2="36.597" y2="45.253" stroke="#000000" stroke-width="3" stroke-miterlimit="3.999327"/>
<line x1="20.792" y1="26.548" x2="11.718" y2="45.417" stroke="#000000" stroke-width="3" stroke-miterlimit="3.999327"/>
</svg>
